<svg width="108" height="124" viewBox="0 0 108 124" fill="none" xmlns="http://www.w3.org/2000/svg">
<path d="M21.5734 81.0025L86.8745 80.092M21.5734 81.0025L53.3999 24.2222M21.5734 81.0025L1.84412 92.8279M21.5734 81.0025L0.613245 32.0406M21.5734 81.0025L55.0628 122.911M86.8745 80.092L53.3999 24.2222M86.8745 80.092L106.643 30.3249M86.8745 80.092L107.11 91.6397M86.8745 80.092L55.0628 122.911M53.3999 24.2222L106.643 30.3249M53.3999 24.2222L53.2672 0.613303M53.3999 24.2222L0.613245 32.0406M55.0628 122.911L107.11 91.6397L106.643 30.3249L53.2672 0.613303L0.613245 32.0406L1.84412 92.8279L55.0628 122.911Z" stroke="white" stroke-width="1.22657" stroke-linecap="round" stroke-linejoin="round"/>
</svg>
