<svg width="31" height="31" viewBox="0 0 31 31" fill="none" xmlns="http://www.w3.org/2000/svg">
<rect x="0.477238" y="0.477238" width="29.5887" height="29.5887" rx="14.7944" stroke="#FF541F" stroke-width="0.954475"/>
<path d="M18.9095 8.44117C18.9095 8.33833 18.8687 8.2397 18.796 8.16698C18.7232 8.09427 18.6246 8.05341 18.5218 8.05341H16.583C15.6067 8.00478 14.6509 8.34453 13.9243 8.99844C13.1978 9.65234 12.7596 10.5672 12.7054 11.5432V13.6371H10.7667C10.6638 13.6371 10.5652 13.6779 10.4925 13.7507C10.4198 13.8234 10.3789 13.922 10.3789 14.0249V16.0412C10.3789 16.144 10.4198 16.2426 10.4925 16.3154C10.5652 16.3881 10.6638 16.4289 10.7667 16.4289H12.7054V21.6249C12.7054 21.7277 12.7463 21.8263 12.819 21.899C12.8917 21.9718 12.9904 22.0126 13.0932 22.0126H15.4197C15.5226 22.0126 15.6212 21.9718 15.6939 21.899C15.7666 21.8263 15.8075 21.7277 15.8075 21.6249V16.4289H17.8393C17.9256 16.4302 18.0097 16.4026 18.0786 16.3507C18.1474 16.2987 18.1969 16.2253 18.2193 16.142L18.7777 14.1257C18.7931 14.0684 18.7952 14.0083 18.7838 13.9501C18.7723 13.8919 18.7477 13.837 18.7117 13.7898C18.6757 13.7427 18.6294 13.7043 18.5763 13.6779C18.5232 13.6514 18.4648 13.6374 18.4054 13.6371H15.8075V11.5432C15.8268 11.3513 15.9169 11.1734 16.0603 11.0443C16.2037 10.9153 16.3901 10.8443 16.583 10.8453H18.5218C18.6246 10.8453 18.7232 10.8044 18.796 10.7317C18.8687 10.659 18.9095 10.5603 18.9095 10.4575V8.44117Z" fill="#FF541F"/>
</svg>
