<svg width="31" height="31" viewBox="0 0 31 31" fill="none" xmlns="http://www.w3.org/2000/svg">
<rect x="0.477238" y="0.477238" width="29.5887" height="29.5887" rx="14.7944" stroke="#FF541F" stroke-width="0.954475"/>
<path d="M19.2974 16.5836C19.0703 17.3734 18.6204 18.081 18.0014 18.6215C17.3824 19.1621 16.6207 19.5127 15.8076 19.6313C15.1717 19.7236 14.5237 19.6864 13.9025 19.522C13.2813 19.3576 12.6998 19.0694 12.1928 18.6746C11.6858 18.2799 11.2638 17.7868 10.9521 17.2249C10.6404 16.663 10.4455 16.0439 10.379 15.4048C10.3275 14.7632 10.4097 14.1179 10.6203 13.5096C10.831 12.9014 11.1656 12.3435 11.6029 11.8712C12.0402 11.3989 12.5708 11.0225 13.161 10.7657C13.7513 10.5089 14.3884 10.3774 15.032 10.3795C15.6352 10.3803 16.2327 10.4961 16.7925 10.7207C16.8806 10.7603 16.9803 10.7655 17.0722 10.7354C17.164 10.7053 17.2412 10.642 17.2888 10.5579L18.4055 8.50275C18.4296 8.45542 18.444 8.4038 18.4481 8.35087C18.4521 8.29793 18.4456 8.24472 18.4291 8.19428C18.4125 8.14384 18.3861 8.09718 18.3515 8.05695C18.3168 8.01673 18.2746 7.98375 18.2272 7.95989C17.028 7.41697 15.7104 7.18822 14.3984 7.29518C13.0864 7.40214 11.8232 7.8413 10.7278 8.5713C9.63246 9.3013 8.74092 10.2981 8.13719 11.4678C7.53346 12.6376 7.23742 13.9417 7.27693 15.2575C7.35336 17.2117 8.15665 19.0669 9.52947 20.4598C10.9023 21.8527 12.7457 22.6829 14.6986 22.7877C16.7443 22.8784 18.7429 22.1563 20.2582 20.779C21.7736 19.4017 22.6827 17.4809 22.7872 15.4358C22.7872 15.2807 22.7872 14.3889 22.7872 13.8848C22.7852 13.7826 22.7437 13.6851 22.6714 13.6128C22.5991 13.5405 22.5016 13.499 22.3994 13.497H15.4198C15.317 13.497 15.2183 13.5379 15.1456 13.6106C15.0729 13.6833 15.032 13.782 15.032 13.8848V16.2113C15.032 16.3142 15.0729 16.4128 15.1456 16.4855C15.2183 16.5582 15.317 16.5991 15.4198 16.5991H19.2974" fill="#FF541F"/>
</svg>
