<svg width="31" height="31" viewBox="0 0 31 31" fill="none" xmlns="http://www.w3.org/2000/svg">
<rect x="0.477238" y="0.477238" width="29.5887" height="29.5887" rx="14.7944" stroke="#FF541F" stroke-width="0.954475"/>
<path d="M15.0345 6.5019C12.796 6.47915 10.64 7.34613 9.0404 8.91229C7.44079 10.4784 6.52846 12.6156 6.50391 14.8542C6.51253 16.6232 7.08162 18.3441 8.12943 19.7695C9.17723 21.1949 10.6498 22.2515 12.3358 22.7876C12.7623 22.8652 12.9174 22.6093 12.9174 22.3844C12.9174 22.1595 12.9174 21.6631 12.9174 20.9652C10.5443 21.4693 10.0402 19.8484 10.0402 19.8484C9.88226 19.3396 9.54642 18.9047 9.09411 18.6231C8.3186 18.1113 9.15615 18.1191 9.15615 18.1191C9.42421 18.1549 9.68068 18.251 9.90631 18.4C10.132 18.5491 10.3209 18.7474 10.459 18.9799C10.6997 19.3972 11.0946 19.7033 11.5587 19.8324C12.0228 19.9615 12.5191 19.9032 12.9406 19.6701C12.984 19.2454 13.1763 18.8498 13.4835 18.5533C11.5913 18.344 9.60595 17.6305 9.60595 14.4276C9.58903 13.5922 9.89773 12.7829 10.4668 12.1709C10.2076 11.4536 10.2382 10.6635 10.5521 9.96844C10.5521 9.96844 11.2733 9.74354 12.8786 10.8215C14.276 10.4491 15.7465 10.4491 17.1439 10.8215C18.7725 9.74354 19.4705 9.96844 19.4705 9.96844C19.7843 10.6635 19.8149 11.4536 19.5558 12.1709C20.138 12.7716 20.4635 13.5755 20.4631 14.4121C20.4631 17.6227 18.4623 18.3284 16.5856 18.5378C16.791 18.7374 16.9498 18.9799 17.0504 19.2481C17.1509 19.5163 17.1908 19.8034 17.1672 20.0889V22.3766C17.1672 22.3766 17.3223 22.8652 17.7488 22.7799C19.4299 22.2404 20.8976 21.1835 21.9422 19.7601C22.9867 18.3368 23.5548 16.6197 23.5652 14.8542C23.5406 12.6156 22.6283 10.4784 21.0287 8.91229C19.4291 7.34613 17.2731 6.47915 15.0345 6.5019Z" fill="#FF541F"/>
</svg>
