<svg width="16" height="16" viewBox="0 0 16 16" fill="none" xmlns="http://www.w3.org/2000/svg">
<path fill-rule="evenodd" clip-rule="evenodd" d="M14.4976 5.55921C14.6497 5.68042 14.7628 5.84369 14.8228 6.02869C14.884 6.21444 14.8888 6.41413 14.8368 6.60263C14.7847 6.79114 14.6781 6.96005 14.5303 7.08811L11.9589 9.33187C11.8912 9.39088 11.8409 9.46716 11.8132 9.55255C11.7855 9.63794 11.7816 9.72924 11.8017 9.81671L12.5721 13.1581C12.6165 13.3479 12.6039 13.5466 12.5359 13.7294C12.4679 13.9121 12.3476 14.0707 12.1899 14.1854C12.0323 14.3001 11.8443 14.3658 11.6495 14.3743C11.4547 14.3827 11.2618 14.3335 11.0948 14.2328L8.18472 12.468C8.10722 12.421 8.01831 12.3961 7.92767 12.3961C7.83704 12.3961 7.74813 12.421 7.67063 12.468L4.76752 14.2328C4.60058 14.3334 4.40769 14.3826 4.21297 14.3742C4.01824 14.3658 3.83032 14.3001 3.67269 14.1855C3.51505 14.0709 3.3947 13.9123 3.32667 13.7297C3.25864 13.547 3.24595 13.3484 3.29019 13.1586L4.06108 9.82018C4.08129 9.73275 4.07739 9.64148 4.0498 9.55609C4.02221 9.47071 3.97197 9.39441 3.90442 9.33534L1.33247 7.08811C1.18453 6.9606 1.07754 6.79224 1.02493 6.60415C0.972322 6.41607 0.97643 6.21663 1.03674 6.03087C1.09706 5.84512 1.21089 5.68131 1.36396 5.56C1.51702 5.43869 1.7025 5.3653 1.89713 5.34902L5.2831 5.05603C5.37319 5.04822 5.45943 5.01591 5.53248 4.96261C5.60554 4.9093 5.66262 4.83703 5.69755 4.75362L7.01971 1.59917C7.09486 1.41921 7.22157 1.26549 7.38388 1.15738C7.5462 1.04926 7.73686 0.991577 7.93189 0.991577C8.12691 0.991577 8.31758 1.04926 8.47989 1.15738C8.64221 1.26549 8.76891 1.41921 8.84407 1.59917L10.1707 4.75412C10.2058 4.83734 10.2629 4.90941 10.3359 4.96253C10.409 5.01565 10.4952 5.04781 10.5851 5.05553L13.9671 5.34703C14.1609 5.36418 14.3454 5.43797 14.4976 5.55921ZM7.93189 1.98982L7.93288 1.99031V1.98932L7.93189 1.98982Z" fill="#FF541F"/>
</svg>
